# xmcd CD database file
#
# Track frame offsets:
#	150
#	12108
#	23556
#	36243
#	48737
#	63849
#	76067
#	88722
#	102726
#	116379
#	129809
#	144421
#	157725
#	168588
#	183553
#	196120
#	208783
#	222229
#
# Disc length: 3152 seconds
#
# Revision: 0
# Processed by: cddbd v1.5.1PL0 Copyright (c) Steve Scherf et al.
# Submitted via: CdAid (MTCDDB.DLL V2003.12.21)
#
DISCID=ea0c4e12
DTITLE=Eddy Arnold - Famous Country Music Makers
DYEAR=1999
DGENRE=Country
TTITLE0=Bouquet Of Roses
TTITLE1=It's A Sin
TTITLE2=I'll Hold You In my Heart
TTITLE3=I Couldn't Believe It Was True
TTITLE4=Many Tears Ago
TTITLE5=It Makes No Difference Now
TTITLE6=The Prisoners Song
TTITLE7=Molly Darling
TTITLE8=Who At My Door Is Standing?
TTITLE9=Then I Turned And Walked Slowly Away
TTITLE10=I'm Thinking Tonight Of My Blue Eyes
TTITLE11=Seven Years With The Wrong Woman
TTITLE12=Wondering What To Do
TTITLE13=Rocking Alone In  An Old Rockin' Chair
TTITLE14=Texarkana Baby
TTITLE15=I Walk Alone
TTITLE16=Anytime
TTITLE17=The Cattle Call
EXTD=Pulse PLS CD 327 ID3G:   2 YEAR: 1999
EXTT0=
EXTT1=
EXTT2=
EXTT3=
EXTT4=
EXTT5=
EXTT6=
EXTT7=
EXTT8=
EXTT9=
EXTT10=
EXTT11=
EXTT12=
EXTT13=
EXTT14=
EXTT15=
EXTT16=
EXTT17=
PLAYORDER=
